REM DIRINDEX 1\2,1\3
REM DIRNAME cjc039,folder01,folder02
TITLE ""
FILE "2061-2080.mp3" MP3
  TRACK 01 AUDIO
    TITLE "0:"
    INDEX 01 00:00:00
  TRACK 02 AUDIO
    TITLE "2:cjc039_3121"
    INDEX 01 00:00:27
  TRACK 03 AUDIO
    TITLE "0:"
    INDEX 01 00:03:12
  TRACK 04 AUDIO
    TITLE "3:cjc039_3122"
    INDEX 01 00:03:63
  TRACK 05 AUDIO
    TITLE "0:"
    INDEX 01 00:07:74
  TRACK 06 AUDIO
    TITLE "2:cjc039_3123"
    INDEX 01 00:09:47
  TRACK 07 AUDIO
    TITLE "0:"
    INDEX 01 00:10:72
  TRACK 08 AUDIO
    TITLE "3:cjc039_3124"
    INDEX 01 00:11:44
  TRACK 09 AUDIO
    TITLE "0:"
    INDEX 01 00:16:04
  TRACK 10 AUDIO
    TITLE "2:cjc039_3125"
    INDEX 01 00:17:57
  TRACK 11 AUDIO
    TITLE "0:"
    INDEX 01 00:19:07
  TRACK 12 AUDIO
    TITLE "3:cjc039_3126"
    INDEX 01 00:19:56
  TRACK 13 AUDIO
    TITLE "0:"
    INDEX 01 00:23:57
  TRACK 14 AUDIO
    TITLE "2:cjc039_3127"
    INDEX 01 00:25:29
  TRACK 15 AUDIO
    TITLE "0:"
    INDEX 01 00:26:73
  TRACK 16 AUDIO
    TITLE "3:cjc039_3128"
    INDEX 01 00:27:49
  TRACK 17 AUDIO
    TITLE "0:"
    INDEX 01 00:31:67
  TRACK 18 AUDIO
    TITLE "2:cjc039_3129"
    INDEX 01 00:33:42
  TRACK 19 AUDIO
    TITLE "0:"
    INDEX 01 00:34:59
  TRACK 20 AUDIO
    TITLE "3:cjc039_3130"
    INDEX 01 00:35:35
  TRACK 21 AUDIO
    TITLE "0:"
    INDEX 01 00:39:09
  TRACK 22 AUDIO
    TITLE "2:cjc039_3131"
    INDEX 01 00:40:60
  TRACK 23 AUDIO
    TITLE "0:"
    INDEX 01 00:42:08
  TRACK 24 AUDIO
    TITLE "3:cjc039_3132"
    INDEX 01 00:42:57
  TRACK 25 AUDIO
    TITLE "0:"
    INDEX 01 00:46:49
  TRACK 26 AUDIO
    TITLE "2:cjc039_3133"
    INDEX 01 00:48:24
  TRACK 27 AUDIO
    TITLE "0:"
    INDEX 01 00:49:39
  TRACK 28 AUDIO
    TITLE "3:cjc039_3134"
    INDEX 01 00:50:19
  TRACK 29 AUDIO
    TITLE "0:"
    INDEX 01 00:54:40
  TRACK 30 AUDIO
    TITLE "2:cjc039_3135"
    INDEX 01 00:56:20
  TRACK 31 AUDIO
    TITLE "0:"
    INDEX 01 00:57:46
  TRACK 32 AUDIO
    TITLE "3:cjc039_3136"
    INDEX 01 00:58:24
  TRACK 33 AUDIO
    TITLE "0:"
    INDEX 01 01:02:48
  TRACK 34 AUDIO
    TITLE "2:cjc039_3137"
    INDEX 01 01:04:23
  TRACK 35 AUDIO
    TITLE "0:"
    INDEX 01 01:05:26
  TRACK 36 AUDIO
    TITLE "3:cjc039_3138"
    INDEX 01 01:06:02
  TRACK 37 AUDIO
    TITLE "0:"
    INDEX 01 01:10:20
  TRACK 38 AUDIO
    TITLE "2:cjc039_3139"
    INDEX 01 01:11:70
  TRACK 39 AUDIO
    TITLE "0:"
    INDEX 01 01:13:30
  TRACK 40 AUDIO
    TITLE "3:cjc039_3140"
    INDEX 01 01:14:04
  TRACK 41 AUDIO
    TITLE "0:"
    INDEX 01 01:18:29
  TRACK 42 AUDIO
    TITLE "2:cjc039_3141"
    INDEX 01 01:20:00
  TRACK 43 AUDIO
    TITLE "0:"
    INDEX 01 01:21:12
  TRACK 44 AUDIO
    TITLE "3:cjc039_3142"
    INDEX 01 01:21:67
  TRACK 45 AUDIO
    TITLE "0:"
    INDEX 01 01:24:69
  TRACK 46 AUDIO
    TITLE "2:cjc039_3143"
    INDEX 01 01:26:40
  TRACK 47 AUDIO
    TITLE "0:"
    INDEX 01 01:27:59
  TRACK 48 AUDIO
    TITLE "3:cjc039_3144"
    INDEX 01 01:28:37
  TRACK 49 AUDIO
    TITLE "0:"
    INDEX 01 01:32:60
  TRACK 50 AUDIO
    TITLE "2:cjc039_3145"
    INDEX 01 01:34:38
  TRACK 51 AUDIO
    TITLE "0:"
    INDEX 01 01:35:43
  TRACK 52 AUDIO
    TITLE "3:cjc039_3146"
    INDEX 01 01:36:21
  TRACK 53 AUDIO
    TITLE "0:"
    INDEX 01 01:39:19
  TRACK 54 AUDIO
    TITLE "2:cjc039_3147"
    INDEX 01 01:40:70
  TRACK 55 AUDIO
    TITLE "0:"
    INDEX 01 01:42:04
  TRACK 56 AUDIO
    TITLE "3:cjc039_3148"
    INDEX 01 01:42:55
  TRACK 57 AUDIO
    TITLE "0:"
    INDEX 01 01:46:68
  TRACK 58 AUDIO
    TITLE "2:cjc039_3149"
    INDEX 01 01:48:40
  TRACK 59 AUDIO
    TITLE "0:"
    INDEX 01 01:49:51
  TRACK 60 AUDIO
    TITLE "3:cjc039_3150"
    INDEX 01 01:50:29
  TRACK 61 AUDIO
    TITLE "0:"
    INDEX 01 01:53:53
  TRACK 62 AUDIO
    TITLE "2:cjc039_3151"
    INDEX 01 01:55:24
  TRACK 63 AUDIO
    TITLE "0:"
    INDEX 01 01:56:55
  TRACK 64 AUDIO
    TITLE "3:cjc039_3152"
    INDEX 01 01:57:25
  TRACK 65 AUDIO
    TITLE "0:"
    INDEX 01 02:01:33
  TRACK 66 AUDIO
    TITLE "2:cjc039_3153"
    INDEX 01 02:03:06
  TRACK 67 AUDIO
    TITLE "0:"
    INDEX 01 02:04:13
  TRACK 68 AUDIO
    TITLE "3:cjc039_3154"
    INDEX 01 02:04:66
  TRACK 69 AUDIO
    TITLE "0:"
    INDEX 01 02:07:26
  TRACK 70 AUDIO
    TITLE "2:cjc039_3155"
    INDEX 01 02:08:72
  TRACK 71 AUDIO
    TITLE "0:"
    INDEX 01 02:10:36
  TRACK 72 AUDIO
    TITLE "3:cjc039_3156"
    INDEX 01 02:11:10
  TRACK 73 AUDIO
    TITLE "0:"
    INDEX 01 02:14:37
  TRACK 74 AUDIO
    TITLE "2:cjc039_3157"
    INDEX 01 02:16:11
  TRACK 75 AUDIO
    TITLE "0:"
    INDEX 01 02:17:10
  TRACK 76 AUDIO
    TITLE "3:cjc039_3158"
    INDEX 01 02:17:61
  TRACK 77 AUDIO
    TITLE "0:"
    INDEX 01 02:21:26
  TRACK 78 AUDIO
    TITLE "2:cjc039_3159"
    INDEX 01 02:23:01
  TRACK 79 AUDIO
    TITLE "0:"
    INDEX 01 02:24:53
  TRACK 80 AUDIO
    TITLE "3:cjc039_3160"
    INDEX 01 02:25:31
  TRACK 81 AUDIO
    TITLE "0:"
    INDEX 01 02:29:51
